<svg xmlns="http://www.w3.org/2000/svg" viewBox="0 0 128 128" fill="none">
  <!-- Envelope body (square corners) -->
  <path fill="#EA580C" stroke="#111111" stroke-width="4" stroke-linejoin="miter" stroke-linecap="square"
        d="M16 54 L64 82 L112 54 L112 108 L16 108 Z"/>

  <!-- Back flap -->
  <path fill="#EA580C" stroke="#111111" stroke-width="4" stroke-linejoin="miter" stroke-linecap="square"
        d="M16 54 L64 20 L112 54 L64 82 Z"/>

  <!-- Front fold -->
  <path fill="none" stroke="#111111" stroke-width="4" stroke-linejoin="miter" stroke-linecap="square"
        d="M16 54 L64 82 L112 54"/>
  <path fill="none" stroke="#111111" stroke-width="4" stroke-linejoin="miter" stroke-linecap="square"
        d="M64 82 L64 108"/>

  <!-- Soccer ball -->
  <circle fill="#EA580C" stroke="#111111" stroke-width="3.5" cx="36" cy="60" r="12"/>
  <path fill="none" stroke="#111111" stroke-width="2.5" stroke-linejoin="miter"
        d="M36 48 L40.5 54 L39.5 61 L32.5 61 L31.5 54 Z"/>
  <path fill="none" stroke="#111111" stroke-width="2" stroke-linecap="square"
        d="M40.5 54 L47 56 M39.5 61 L45 65 M32.5 61 L27 65 M31.5 54 L25 56"/>

  <!-- Basketball -->
  <circle fill="#EA580C" stroke="#111111" stroke-width="3.5" cx="64" cy="58" r="13"/>
  <path fill="none" stroke="#111111" stroke-width="2.5"
        d="M51 58 C57 51 71 51 77 58"/>
  <path fill="none" stroke="#111111" stroke-width="2.5"
        d="M51 58 C57 65 71 65 77 58"/>
  <path fill="none" stroke="#111111" stroke-width="2.5"
        d="M64 45 L64 71"/>

  <!-- Football -->
  <ellipse fill="#EA580C" stroke="#111111" stroke-width="3.5" cx="92" cy="60" rx="11" ry="7.5" transform="rotate(-20 92 60)"/>
  <path fill="none" stroke="#111111" stroke-width="2" stroke-linecap="square"
        d="M87.5 60 L96.5 60 M89.5 56.5 L89.5 63.5 M93.5 56.5 L93.5 63.5"/>
</svg>
