<svg xmlns="http://www.w3.org/2000/svg" viewBox="0 0 64 64" fill="none" role="img" aria-label="Tether">
  <defs>
    <linearGradient id="th-g" x1="32" y1="12" x2="32" y2="52" gradientUnits="userSpaceOnUse">
      <stop stop-color="#4f8ff7"/>
      <stop offset="0.5" stop-color="#2563eb"/>
      <stop offset="1" stop-color="#1e3a8a"/>
    </linearGradient>
  </defs>
  <!-- One piece: checklist card; lines and check are cutouts (even-odd) -->
  <path
    fill="url(#th-g)"
    fill-rule="evenodd"
    d="M 16 13
       H 48
       C 51.3 13 54 15.7 54 19
       V 45
       C 54 48.3 51.3 51 48 51
       H 16
       C 12.7 51 10 48.3 10 45
       V 19
       C 10 15.7 12.7 13 16 13
       Z
       M 18 21.5 H 46 V 24.5 H 18 V 21.5 Z
       M 18 28.5 H 42 V 31.5 H 18 V 28.5 Z
       M 19.5 35.5
       L 27.5 43.5
       L 47 24
       L 43.5 20.5
       L 27.5 36.5
       L 23.5 32.5
       L 19.5 35.5
       Z"/>
</svg>
