<svg xmlns="http://www.w3.org/2000/svg" viewBox="0 0 64 64" fill="none" role="img" aria-label="Tether">
  <defs>
    <linearGradient id="th-g" x1="32" y1="10" x2="32" y2="54" gradientUnits="userSpaceOnUse">
      <stop stop-color="#60a5fa"/>
      <stop offset="0.45" stop-color="#2563eb"/>
      <stop offset="1" stop-color="#1e3a8a"/>
    </linearGradient>
  </defs>
  <!-- One connected link ring (tether) with a check notch at the top -->
  <path
    fill="url(#th-g)"
    fill-rule="evenodd"
    d="M 32 11
       L 36.5 18.5
       C 47 20.5 54 29.5 54 40
       C 54 50.5 44.5 57 32 57
       C 19.5 57 10 50.5 10 40
       C 10 29.5 17 20.5 27.5 18.5
       L 32 11
       Z
       M 32 20
       C 24.5 20 19 26 19 33.5
       C 19 41 24.5 47 32 47
       C 39.5 47 45 41 45 33.5
       C 45 26 39.5 20 32 20
       Z"/>
</svg>
