<svg xmlns="http://www.w3.org/2000/svg" viewBox="0 0 64 64" fill="none" role="img" aria-label="TrifangX">
  <g transform="translate(0 14)">
    <path fill="#e0a830" d="M17 20 19 20 21 22 22 25 21 29 19 32 17 33 16 30 17 26Z"/>
    <path fill="#e0a830" d="M47 20 45 20 43 22 42 25 43 29 45 32 47 33 48 30 47 26Z"/>
    <path fill="#e0a830" d="M30 31 32 27 34 31 33 33 31 33Z"/>
    <path fill="#17304c" d="M31 6h2v2h1.5v1.5H29.5V8H31zM26 11h12v4H26zm1 4h10v5H27zm1 5h8v7h-8zm-2 7h12v2h1.5v1.5h-15V25H25zm-1 2.5h14v2H24zm-1 2h16v2H23z"/>
  </g>
</svg>
