<svg xmlns="http://www.w3.org/2000/svg" viewBox="0 0 64 64" fill="none" role="img" aria-label="TrifangX">
  <g transform="translate(0 12)">
    <!-- Left fang -->
    <path fill="#d9a428" d="M11 35 12.5 27 15.5 20 19 17 23 19.5 24.5 25 22.5 31 18.5 34.5 14 35Z"/>
    <!-- Right fang -->
    <path fill="#d9a428" d="M53 35 51.5 27 48.5 20 45 17 41 19.5 39.5 25 41.5 31 45.5 34.5 50 35Z"/>
    <!-- Center fang -->
    <path fill="#d9a428" d="M27.5 35 32 14 36.5 35 32 26Z"/>
    <!-- Chess king -->
    <path fill="#1a3048" d="M30.5 6h3v2.2h1.8v1.8h-6.6V8.2h1.8V6zm-4.8 6h12.6v4H25.7zm1.1 4.2h10.4v7.4H26.8zm1.2 7.6h8v5.2h-8zm-5.4 5.8h6.6v6.6h-6.6zm12.6 0h6.6v6.6h-6.6zm-11.4 2.4h5.2v4.4h-5.2zm17.4 0h5.2v4.4h-5.2z"/>
  </g>
</svg>
