<svg xmlns="http://www.w3.org/2000/svg" viewBox="0 0 64 64" fill="none" role="img" aria-label="TrifangX">
  <g transform="translate(0 14)">
    <!-- Left fang -->
    <path fill="#e0a830" d="M14 33c0-3 1.5-8 4.5-10.5 2.5-2 5-1 5.5 2.5.6 3.2-1.2 7.2-3.8 9.2-1.4 1.1-3.6 1.2-6.2-1.2z"/>
    <!-- Right fang -->
    <path fill="#e0a830" d="M50 33c0-3-1.5-8-4.5-10.5-2.5-2-5-1-5.5 2.5-.6 3.2 1.2 7.2 3.8 9.2 1.4 1.1 3.6 1.2 6.2-1.2z"/>
    <!-- Center fang -->
    <path fill="#e0a830" d="M28.5 33 32 19.5 35.5 33 32 28.5z"/>
    <!-- Chess king -->
    <path fill="#17304c" d="M31 6h2v2h1.5v1.5H29.5V8H31zM26 11h12v4H26zm1 4h10v5H27zm1 5h8v7h-8zm-5 7h6v6H23zm12 0h6v6H36zm-11 2h4.5v4H24zm17.5 0h4.5v4H40z"/>
  </g>
</svg>
